# xmcd
#
# Track frame offsets:
#	150
#	28095
#	49481
#	79767
#	96354
#	121155
#	145899
#
# Disc length: 2400 seconds
# Revision: 0
# Processed by: cddbd v1.5.2PL0 Copyright (c) Steve Scherf et al.
# Submitted via: dBpowerAMP V12.0
#
DISCID=5d095e07
DTITLE=Earphunk - No Nine To Five
DYEAR=2013
DGENRE=Funky
TTITLE0=27
TTITLE1=Recoil
TTITLE2=Killona
TTITLE3=No 9 to 5
TTITLE4=Try
TTITLE5=Drink Mo'
TTITLE6=The Rapturre
EXTD=
EXTT0=
EXTT1=
EXTT2=
EXTT3=
EXTT4=
EXTT5=
EXTT6=
PLAYORDER=
